<svg width="24" height="24" viewBox="0 0 24 24" fill="none" xmlns="http://www.w3.org/2000/svg">
<g clip-path="url(#clip0_7155_8279)">
<path d="M10.2593 11.1429C10.8021 11.1429 11.2418 11.55 11.2319 12.0476C11.2319 12.5452 10.803 12.9524 10.2593 12.9524C9.72546 12.9524 9.28575 12.5452 9.28575 12.0476C9.28575 11.55 9.71551 11.1429 10.2593 11.1429ZM13.7408 11.1429C14.2846 11.1429 14.7143 11.55 14.7143 12.0476C14.7143 12.5452 14.2846 12.9524 13.7408 12.9524C13.207 12.9524 12.7682 12.5452 12.7682 12.0476C12.7682 11.55 13.197 11.1429 13.7408 11.1429ZM18.2348 3C19.287 3 20.1429 3.874 20.1429 4.957V22L18.1425 20.195L17.016 19.131L15.8245 18L16.3185 19.758H5.76532C4.71308 19.758 3.85718 18.884 3.85718 17.801V4.957C3.85718 3.874 4.71308 3 5.76532 3H18.2338H18.2348ZM14.6428 15.407C16.6994 15.341 17.491 13.963 17.491 13.963C17.491 10.904 16.1502 8.42405 16.1502 8.42405C14.8111 7.39895 13.5354 7.427 13.5354 7.427L13.4051 7.579C14.9876 8.073 15.7222 8.78595 15.7222 8.78595C14.8582 8.29918 13.906 7.98916 12.9211 7.87395C12.2963 7.80338 11.6652 7.80946 11.0419 7.89205C10.9858 7.89205 10.9387 7.902 10.8836 7.91105C10.5578 7.94 9.76618 8.06305 8.77094 8.51C8.42713 8.67105 8.22175 8.78595 8.22175 8.78595C8.22175 8.78595 8.99442 8.035 10.6691 7.541L10.5759 7.427C10.5759 7.427 9.30113 7.39895 7.96118 8.42495C7.96118 8.42495 6.62123 10.904 6.62123 13.963C6.62123 13.963 7.40294 15.34 9.45946 15.407C9.45946 15.407 9.80327 14.98 10.0837 14.619C8.90123 14.257 8.45518 13.497 8.45518 13.497C8.45518 13.497 8.54746 13.564 8.71485 13.659C8.72389 13.668 8.73294 13.678 8.75194 13.687C8.77999 13.707 8.80804 13.716 8.83608 13.735C9.06861 13.868 9.30113 13.972 9.51465 14.058C9.89646 14.21 10.3525 14.362 10.8836 14.467C11.6791 14.6229 12.4971 14.626 13.2938 14.476C13.7579 14.3932 14.2107 14.2562 14.6428 14.068C14.9686 13.944 15.3314 13.763 15.7132 13.507C15.7132 13.507 15.2481 14.286 14.0285 14.638C14.3081 14.999 14.6437 15.407 14.6437 15.407H14.6428Z" fill="#EAE9E5"/>
</g>
<defs>
<clipPath id="clip0_7155_8279">
<rect width="24" height="24" fill="white"/>
</clipPath>
</defs>
</svg>
