<svg width="25" height="24" viewBox="0 0 25 24" fill="none" xmlns="http://www.w3.org/2000/svg">
<g clip-path="url(#clip0_7155_2106)">
<path d="M10.7593 11.1429C11.3021 11.1429 11.7418 11.55 11.7319 12.0476C11.7319 12.5452 11.303 12.9524 10.7593 12.9524C10.2255 12.9524 9.78575 12.5452 9.78575 12.0476C9.78575 11.55 10.2155 11.1429 10.7593 11.1429ZM14.2408 11.1429C14.7846 11.1429 15.2143 11.55 15.2143 12.0476C15.2143 12.5452 14.7846 12.9524 14.2408 12.9524C13.707 12.9524 13.2682 12.5452 13.2682 12.0476C13.2682 11.55 13.697 11.1429 14.2408 11.1429ZM18.7348 3C19.787 3 20.6429 3.874 20.6429 4.957V22L18.6425 20.195L17.516 19.131L16.3245 18L16.8185 19.758H6.26532C5.21308 19.758 4.35718 18.884 4.35718 17.801V4.957C4.35718 3.874 5.21308 3 6.26532 3H18.7338H18.7348ZM15.1428 15.407C17.1994 15.341 17.991 13.963 17.991 13.963C17.991 10.904 16.6502 8.42405 16.6502 8.42405C15.3111 7.39895 14.0354 7.427 14.0354 7.427L13.9051 7.579C15.4876 8.073 16.2222 8.78595 16.2222 8.78595C15.3582 8.29918 14.406 7.98916 13.4211 7.87395C12.7963 7.80338 12.1652 7.80946 11.5419 7.89205C11.4858 7.89205 11.4387 7.902 11.3836 7.91105C11.0578 7.94 10.2662 8.06305 9.27094 8.51C8.92713 8.67105 8.72175 8.78595 8.72175 8.78595C8.72175 8.78595 9.49442 8.035 11.1691 7.541L11.0759 7.427C11.0759 7.427 9.80113 7.39895 8.46118 8.42495C8.46118 8.42495 7.12123 10.904 7.12123 13.963C7.12123 13.963 7.90294 15.34 9.95946 15.407C9.95946 15.407 10.3033 14.98 10.5837 14.619C9.40123 14.257 8.95518 13.497 8.95518 13.497C8.95518 13.497 9.04746 13.564 9.21485 13.659C9.22389 13.668 9.23294 13.678 9.25194 13.687C9.27999 13.707 9.30804 13.716 9.33608 13.735C9.56861 13.868 9.80113 13.972 10.0147 14.058C10.3965 14.21 10.8525 14.362 11.3836 14.467C12.1791 14.6229 12.9971 14.626 13.7938 14.476C14.2579 14.3932 14.7107 14.2562 15.1428 14.068C15.4686 13.944 15.8314 13.763 16.2132 13.507C16.2132 13.507 15.7481 14.286 14.5285 14.638C14.8081 14.999 15.1437 15.407 15.1437 15.407H15.1428Z" fill="#FABD2E"/>
</g>
<defs>
<clipPath id="clip0_7155_2106">
<rect width="24" height="24" fill="white" transform="translate(0.5)"/>
</clipPath>
</defs>
</svg>
