<svg width="25" height="24" viewBox="0 0 25 24" fill="none" xmlns="http://www.w3.org/2000/svg">
<g clip-path="url(#clip0_7155_2115)">
<path d="M13.4 19.2V21H11.6V19.2H4.4C4.16131 19.2 3.93239 19.1052 3.7636 18.9364C3.59482 18.7676 3.5 18.5387 3.5 18.3V3.9C3.5 3.66131 3.59482 3.43239 3.7636 3.26361C3.93239 3.09482 4.16131 3 4.4 3H9.8C10.3108 2.9994 10.8159 3.10778 11.2815 3.31792C11.7471 3.52807 12.1625 3.83513 12.5 4.2186C12.8375 3.83513 13.2529 3.52807 13.7185 3.31792C14.1841 3.10778 14.6892 2.9994 15.2 3H20.6C20.8387 3 21.0676 3.09482 21.2364 3.26361C21.4052 3.43239 21.5 3.66131 21.5 3.9V18.3C21.5 18.5387 21.4052 18.7676 21.2364 18.9364C21.0676 19.1052 20.8387 19.2 20.6 19.2H13.4ZM19.7 17.4V4.8H15.2C14.7226 4.8 14.2648 4.98964 13.9272 5.32721C13.5896 5.66478 13.4 6.12261 13.4 6.6V17.4H19.7ZM11.6 17.4V6.6C11.6 6.12261 11.4104 5.66478 11.0728 5.32721C10.7352 4.98964 10.2774 4.8 9.8 4.8H5.3V17.4H11.6Z" fill="#FABD2E"/>
</g>
<defs>
<clipPath id="clip0_7155_2115">
<rect width="24" height="24" fill="white" transform="translate(0.5)"/>
</clipPath>
</defs>
</svg>
