<svg width="24" height="24" viewBox="0 0 24 24" fill="none" xmlns="http://www.w3.org/2000/svg">
<g clip-path="url(#clip0_7155_8275)">
<path d="M12.9 19.2V21H11.1V19.2H3.9C3.66131 19.2 3.43239 19.1052 3.2636 18.9364C3.09482 18.7676 3 18.5387 3 18.3V3.9C3 3.66131 3.09482 3.43239 3.2636 3.26361C3.43239 3.09482 3.66131 3 3.9 3H9.3C9.81083 2.9994 10.3159 3.10778 10.7815 3.31792C11.2471 3.52807 11.6625 3.83513 12 4.2186C12.3375 3.83513 12.7529 3.52807 13.2185 3.31792C13.6841 3.10778 14.1892 2.9994 14.7 3H20.1C20.3387 3 20.5676 3.09482 20.7364 3.26361C20.9052 3.43239 21 3.66131 21 3.9V18.3C21 18.5387 20.9052 18.7676 20.7364 18.9364C20.5676 19.1052 20.3387 19.2 20.1 19.2H12.9ZM19.2 17.4V4.8H14.7C14.2226 4.8 13.7648 4.98964 13.4272 5.32721C13.0896 5.66478 12.9 6.12261 12.9 6.6V17.4H19.2ZM11.1 17.4V6.6C11.1 6.12261 10.9104 5.66478 10.5728 5.32721C10.2352 4.98964 9.77739 4.8 9.3 4.8H4.8V17.4H11.1Z" fill="#EAE9E5"/>
</g>
<defs>
<clipPath id="clip0_7155_8275">
<rect width="24" height="24" fill="white"/>
</clipPath>
</defs>
</svg>
