<svg width="24" height="24" viewBox="0 0 24 24" fill="none" xmlns="http://www.w3.org/2000/svg">
<g clip-path="url(#clip0_7155_8288)">
<path d="M19 19V9.79902L12 4.27702L5 9.79902V19H19ZM21 20C21 20.2652 20.8946 20.5196 20.7071 20.7071C20.5196 20.8947 20.2652 21 20 21H4C3.73478 21 3.48043 20.8947 3.29289 20.7071C3.10536 20.5196 3 20.2652 3 20V9.31402C2.99994 9.16297 3.0341 9.01387 3.09991 8.87791C3.16573 8.74196 3.26149 8.62267 3.38 8.52902L11.38 2.21802C11.5565 2.07851 11.775 2.00262 12 2.00262C12.225 2.00262 12.4435 2.07851 12.62 2.21802L20.62 8.52802C20.7386 8.62178 20.8345 8.74122 20.9003 8.87736C20.9661 9.01351 21.0002 9.1628 21 9.31402V20V20ZM7 12H9C9 12.7957 9.31607 13.5587 9.87868 14.1213C10.4413 14.684 11.2044 15 12 15C12.7956 15 13.5587 14.684 14.1213 14.1213C14.6839 13.5587 15 12.7957 15 12H17C17 13.3261 16.4732 14.5979 15.5355 15.5356C14.5979 16.4732 13.3261 17 12 17C10.6739 17 9.40215 16.4732 8.46447 15.5356C7.52678 14.5979 7 13.3261 7 12V12Z" fill="#EAE9E5"/>
</g>
<defs>
<clipPath id="clip0_7155_8288">
<rect width="24" height="24" fill="white"/>
</clipPath>
</defs>
</svg>
