<svg width="24" height="24" viewBox="0 0 24 24" fill="none" xmlns="http://www.w3.org/2000/svg">
<path d="M6 7.5C6 7.10218 6.15804 6.72064 6.43934 6.43934C6.72064 6.15804 7.10218 6 7.5 6H9.75C10.1478 6 10.5294 6.15804 10.8107 6.43934C11.092 6.72064 11.25 7.10218 11.25 7.5V9.75C11.25 10.1478 11.092 10.5294 10.8107 10.8107C10.5294 11.092 10.1478 11.25 9.75 11.25H7.5C7.10218 11.25 6.72064 11.092 6.43934 10.8107C6.15804 10.5294 6 10.1478 6 9.75V7.5ZM9.75 7.5H7.5V9.75H9.75V7.5ZM7.5 12.75C7.10218 12.75 6.72064 12.908 6.43934 13.1893C6.15804 13.4706 6 13.8522 6 14.25V16.5C6 16.8978 6.15804 17.2794 6.43934 17.5607C6.72064 17.842 7.10218 18 7.5 18H9.75C10.1478 18 10.5294 17.842 10.8107 17.5607C11.092 17.2794 11.25 16.8978 11.25 16.5V14.25C11.25 13.8522 11.092 13.4706 10.8107 13.1893C10.5294 12.908 10.1478 12.75 9.75 12.75H7.5ZM7.5 14.25H9.75V16.5H7.5V14.25ZM12.75 7.5C12.75 7.10218 12.908 6.72064 13.1893 6.43934C13.4706 6.15804 13.8522 6 14.25 6H16.5C16.8978 6 17.2794 6.15804 17.5607 6.43934C17.842 6.72064 18 7.10218 18 7.5V9.75C18 10.1478 17.842 10.5294 17.5607 10.8107C17.2794 11.092 16.8978 11.25 16.5 11.25H14.25C13.8522 11.25 13.4706 11.092 13.1893 10.8107C12.908 10.5294 12.75 10.1478 12.75 9.75V7.5ZM16.5 7.5H14.25V9.75H16.5V7.5ZM14.25 12.75C13.8522 12.75 13.4706 12.908 13.1893 13.1893C12.908 13.4706 12.75 13.8522 12.75 14.25V16.5C12.75 16.8978 12.908 17.2794 13.1893 17.5607C13.4706 17.842 13.8522 18 14.25 18H16.5C16.8978 18 17.2794 17.842 17.5607 17.5607C17.842 17.2794 18 16.8978 18 16.5V14.25C18 13.8522 17.842 13.4706 17.5607 13.1893C17.2794 12.908 16.8978 12.75 16.5 12.75H14.25ZM14.25 14.25H16.5V16.5H14.25V14.25ZM3 6.75C3 5.75544 3.39509 4.80161 4.09835 4.09835C4.80161 3.39509 5.75544 3 6.75 3H17.25C18.2446 3 19.1984 3.39509 19.9017 4.09835C20.6049 4.80161 21 5.75544 21 6.75V17.25C21 18.2446 20.6049 19.1984 19.9017 19.9017C19.1984 20.6049 18.2446 21 17.25 21H6.75C5.75544 21 4.80161 20.6049 4.09835 19.9017C3.39509 19.1984 3 18.2446 3 17.25V6.75ZM6.75 4.5C6.15326 4.5 5.58097 4.73705 5.15901 5.15901C4.73705 5.58097 4.5 6.15326 4.5 6.75V17.25C4.5 17.8467 4.73705 18.419 5.15901 18.841C5.58097 19.2629 6.15326 19.5 6.75 19.5H17.25C17.8467 19.5 18.419 19.2629 18.841 18.841C19.2629 18.419 19.5 17.8467 19.5 17.25V6.75C19.5 6.15326 19.2629 5.58097 18.841 5.15901C18.419 4.73705 17.8467 4.5 17.25 4.5H6.75Z" fill="#E8E7E5"/>
</svg>
