<svg width="18" height="12" viewBox="0 0 18 12" fill="none" xmlns="http://www.w3.org/2000/svg">
<path fill-rule="evenodd" clip-rule="evenodd" d="M0.0115059 3.10288C0.00386599 3.18556 0 3.26877 0 3.35248V6.60382L0.00406417 6.74769C0.143059 9.37477 4.09099 11.4808 8.94118 11.4808C13.8791 11.4808 17.8824 9.29755 17.8824 6.60382V3.35248C17.8824 2.22026 17.1751 1.17823 15.9885 0.350586C15.9382 0.895297 15.724 1.41643 15.3723 1.89962C15.939 2.36248 16.2567 2.86713 16.2567 3.35248C16.2567 4.88224 13.1004 6.60382 8.94118 6.60382C5.41836 6.60382 2.61509 5.3688 1.83966 4.06135C1.15019 3.79056 0.534313 3.46753 0.0115059 3.10288ZM1.62567 6.15676C3.24321 7.41096 5.91743 8.22949 8.94118 8.22949C11.9657 8.22949 14.64 7.41015 16.2575 6.15676L16.2567 6.60382L16.2526 6.69974C16.125 8.2051 13.0135 9.85516 8.94118 9.85516C4.7819 9.85516 1.62567 8.13357 1.62567 6.60382V6.15676Z" fill="#EAE9E5"/>
</svg>
