<svg width="14" height="14" viewBox="0 0 14 14" fill="none" xmlns="http://www.w3.org/2000/svg">
<path fill-rule="evenodd" clip-rule="evenodd" d="M2.3506 12.8497L3.34394 8.54834L0.534603 5.81034C0.44287 5.72093 0.378838 5.60699 0.350166 5.48215C0.321495 5.3573 0.329398 5.22683 0.372932 5.10636C0.416465 4.98589 0.493784 4.88051 0.595639 4.80283C0.697495 4.72515 0.819573 4.67846 0.94727 4.66834L4.74794 4.36634L6.3926 0.725676C6.44505 0.608446 6.5303 0.5089 6.63806 0.439049C6.74583 0.369199 6.87151 0.332031 6.99994 0.332031C7.12836 0.332031 7.25404 0.369199 7.36181 0.439049C7.46958 0.5089 7.55483 0.608446 7.60727 0.725676L9.25194 4.36634L13.0526 4.66901C13.1825 4.67932 13.3066 4.72749 13.4094 4.80756C13.5122 4.88763 13.5894 4.99608 13.6312 5.1195C13.6731 5.24293 13.6778 5.37592 13.6449 5.50202C13.612 5.62812 13.5428 5.7418 13.4459 5.82901L10.4219 8.55034L11.6413 12.817C11.6783 12.9482 11.6743 13.0876 11.6298 13.2164C11.5853 13.3452 11.5023 13.4573 11.3922 13.5376C11.2821 13.6179 11.15 13.6626 11.0137 13.6656C10.8774 13.6686 10.7435 13.6297 10.6299 13.5543L6.99994 11.1343L3.36994 13.5543C3.25895 13.6291 3.128 13.6687 2.99417 13.6679C2.86034 13.6671 2.72987 13.626 2.61978 13.5499C2.5097 13.4738 2.42512 13.3663 2.3771 13.2413C2.32908 13.1164 2.31984 12.9799 2.3506 12.8497Z" fill="#FABD2E"/>
</svg>
