<svg width="18" height="14" viewBox="0 0 18 14" fill="none" xmlns="http://www.w3.org/2000/svg">
<path d="M9.05885 0.972656C13.9968 0.972656 18 3.15593 18 5.84966V9.101C18 11.7947 13.9968 13.978 9.05885 13.978C4.20867 13.978 0.260735 11.872 0.12174 9.24487L0.117676 9.101V5.84966C0.117676 3.15593 4.12088 0.972656 9.05885 0.972656ZM9.05885 10.7267C6.03511 10.7267 3.36088 9.90814 1.74334 8.65394V9.101C1.74334 10.6308 4.89958 12.3523 9.05885 12.3523C13.1312 12.3523 16.2427 10.7023 16.3703 9.19691L16.3744 9.101L16.3752 8.65394C14.7576 9.90733 12.0834 10.7267 9.05885 10.7267ZM9.05885 2.59832C4.89958 2.59832 1.74334 4.31991 1.74334 5.84966C1.74334 7.37942 4.89958 9.101 9.05885 9.101C13.2181 9.101 16.3744 7.37942 16.3744 5.84966C16.3744 4.31991 13.2181 2.59832 9.05885 2.59832Z" fill="#EAE9E5"/>
</svg>
